<svg xmlns="http://www.w3.org/2000/svg" xmlns:xlink="http://www.w3.org/1999/xlink" width="500" zoomAndPan="magnify" viewBox="0 0 375 374.999991" height="500" preserveAspectRatio="xMidYMid meet" version="1.0"><defs><g/></defs><g fill="#272727" fill-opacity="1"><g transform="translate(34.230956, 260.843996)"><g><path d="M 51.199219 -93.804688 C 51.199219 -93.804688 118.886719 -96.210938 118.886719 -141.910156 C 118.886719 -163.558594 95.867188 -185.203125 65.285156 -185.203125 C 59.445312 -185.203125 53.257812 -184.859375 46.386719 -183.484375 C 46.386719 -183.484375 80.058594 -175.582031 80.058594 -140.191406 C 80.058594 -102.050781 51.199219 -93.804688 51.199219 -93.804688 Z M 35.390625 -133.320312 C 47.074219 -133.320312 56.351562 -142.597656 56.351562 -154.277344 C 56.351562 -165.617188 47.074219 -175.238281 35.390625 -175.238281 C 23.707031 -175.238281 14.429688 -165.617188 14.429688 -154.277344 C 14.429688 -142.597656 23.707031 -133.320312 35.390625 -133.320312 Z M 65.972656 4.125 C 96.210938 4.125 119.230469 -14.429688 119.230469 -41.921875 C 119.230469 -94.148438 51.199219 -93.804688 51.199219 -93.804688 C 51.199219 -93.804688 80.402344 -87.964844 80.402344 -43.980469 C 80.402344 -4.808594 47.074219 2.0625 47.074219 2.0625 C 53.945312 3.4375 60.132812 4.125 65.972656 4.125 Z M 36.078125 -5.839844 C 47.761719 -5.839844 57.039062 -15.460938 57.039062 -26.800781 C 57.039062 -38.484375 47.761719 -47.761719 36.078125 -47.761719 C 24.394531 -47.761719 15.117188 -38.484375 15.117188 -26.800781 C 15.117188 -15.460938 24.394531 -5.839844 36.078125 -5.839844 Z M 36.078125 -5.839844 "/></g></g></g><g fill="#272727" fill-opacity="1"><g transform="translate(133.873762, 260.843996)"><g><path d="M 14.429688 0 L 57.039062 0 L 57.039062 -185.203125 C 51.539062 -160.464844 33.328125 -151.875 14.429688 -149.46875 Z M 14.429688 0 "/></g></g></g><g fill="#272727" fill-opacity="1"><g transform="translate(170.981177, 260.843996)"><g><path d="M 82.121094 4.125 C 82.121094 4.125 55.664062 -2.0625 55.664062 -83.152344 C 55.664062 -173.863281 82.121094 -185.203125 82.121094 -185.203125 C 82.121094 -185.203125 14.429688 -167.679688 14.429688 -91.054688 C 14.429688 0 82.121094 4.125 82.121094 4.125 Z M 126.445312 -135.382812 C 137.785156 -135.382812 147.0625 -144.660156 147.0625 -155.996094 C 147.0625 -167.335938 137.785156 -177.300781 126.445312 -177.300781 C 114.765625 -177.300781 105.488281 -167.679688 105.488281 -155.996094 C 105.488281 -144.660156 114.765625 -135.382812 126.445312 -135.382812 Z M 95.523438 4.125 C 95.523438 4.125 147.0625 -3.4375 154.277344 -54.289062 C 161.152344 -103.082031 116.140625 -123.355469 82.121094 -113.390625 C 82.121094 -113.390625 126.445312 -123.355469 120.605469 -52.570312 C 116.484375 -1.03125 95.523438 4.125 95.523438 4.125 Z M 95.523438 4.125 "/></g></g></g><g fill="#272727" fill-opacity="1"><g transform="translate(154.300087, 311.535272)"><g><path d="M 5.859375 -8.5 C 5.617188 -8.90625 5.351562 -9.195312 5.0625 -9.375 C 4.78125 -9.550781 4.441406 -9.640625 4.046875 -9.640625 C 3.535156 -9.640625 3.113281 -9.476562 2.78125 -9.15625 C 2.445312 -8.84375 2.28125 -8.460938 2.28125 -8.015625 C 2.28125 -7.648438 2.414062 -7.34375 2.6875 -7.09375 C 2.96875 -6.84375 3.300781 -6.628906 3.6875 -6.453125 C 4.082031 -6.273438 4.4375 -6.117188 4.75 -5.984375 C 5.070312 -5.859375 5.441406 -5.664062 5.859375 -5.40625 C 6.285156 -5.144531 6.609375 -4.816406 6.828125 -4.421875 C 7.054688 -4.035156 7.171875 -3.585938 7.171875 -3.078125 C 7.171875 -2.503906 7.023438 -1.960938 6.734375 -1.453125 C 6.441406 -0.953125 6.039062 -0.550781 5.53125 -0.25 C 5.019531 0.0390625 4.457031 0.1875 3.84375 0.1875 C 3.019531 0.1875 2.3125 -0.0546875 1.71875 -0.546875 C 1.125 -1.035156 0.738281 -1.703125 0.5625 -2.546875 L 1.703125 -2.875 C 1.796875 -2.289062 2.035156 -1.816406 2.421875 -1.453125 C 2.816406 -1.085938 3.285156 -0.90625 3.828125 -0.90625 C 4.410156 -0.90625 4.914062 -1.101562 5.34375 -1.5 C 5.769531 -1.90625 5.984375 -2.394531 5.984375 -2.96875 C 5.984375 -3.46875 5.820312 -3.878906 5.5 -4.203125 C 5.175781 -4.523438 4.578125 -4.859375 3.703125 -5.203125 C 2.835938 -5.546875 2.1875 -5.929688 1.75 -6.359375 C 1.320312 -6.796875 1.109375 -7.359375 1.109375 -8.046875 C 1.109375 -8.828125 1.394531 -9.46875 1.96875 -9.96875 C 2.550781 -10.476562 3.25 -10.734375 4.0625 -10.734375 C 4.65625 -10.734375 5.179688 -10.59375 5.640625 -10.3125 C 6.109375 -10.03125 6.492188 -9.625 6.796875 -9.09375 Z M 5.859375 -8.5 "/></g></g></g><g fill="#272727" fill-opacity="1"><g transform="translate(165.62171, 311.535272)"><g><path d="M 6.4375 -10.5625 L 6.4375 -9.46875 L 3.859375 -9.46875 L 3.859375 0 L 2.6875 0 L 2.6875 -9.46875 L 0.140625 -9.46875 L 0.140625 -10.5625 Z M 6.4375 -10.5625 "/></g></g></g><g fill="#272727" fill-opacity="1"><g transform="translate(175.698021, 311.535272)"><g><path d="M 2.21875 -10.5625 L 2.21875 -4.046875 C 2.21875 -3.171875 2.3125 -2.546875 2.5 -2.171875 C 2.695312 -1.796875 3.015625 -1.488281 3.453125 -1.25 C 3.890625 -1.019531 4.335938 -0.90625 4.796875 -0.90625 C 5.234375 -0.90625 5.644531 -1.003906 6.03125 -1.203125 C 6.425781 -1.398438 6.710938 -1.617188 6.890625 -1.859375 C 7.078125 -2.097656 7.207031 -2.367188 7.28125 -2.671875 C 7.351562 -2.984375 7.390625 -3.453125 7.390625 -4.078125 L 7.390625 -10.5625 L 8.5625 -10.5625 L 8.5625 -3.828125 C 8.5625 -3.128906 8.488281 -2.566406 8.34375 -2.140625 C 8.207031 -1.722656 7.957031 -1.328125 7.59375 -0.953125 C 7.226562 -0.585938 6.800781 -0.304688 6.3125 -0.109375 C 5.832031 0.0859375 5.328125 0.1875 4.796875 0.1875 C 4.140625 0.1875 3.519531 0.03125 2.9375 -0.28125 C 2.351562 -0.59375 1.890625 -1.007812 1.546875 -1.53125 C 1.203125 -2.0625 1.03125 -2.832031 1.03125 -3.84375 L 1.03125 -10.5625 Z M 2.21875 -10.5625 "/></g></g></g><g fill="#272727" fill-opacity="1"><g transform="translate(188.782661, 311.535272)"><g><path d="M 3.296875 -10.5625 C 4.265625 -10.5625 5.097656 -10.410156 5.796875 -10.109375 C 6.492188 -9.816406 7.078125 -9.421875 7.546875 -8.921875 C 8.015625 -8.421875 8.359375 -7.859375 8.578125 -7.234375 C 8.804688 -6.609375 8.921875 -5.941406 8.921875 -5.234375 C 8.921875 -4.328125 8.710938 -3.484375 8.296875 -2.703125 C 7.878906 -1.929688 7.265625 -1.285156 6.453125 -0.765625 C 5.640625 -0.253906 4.582031 0 3.28125 0 L 1.0625 0 L 1.0625 -10.5625 Z M 3.359375 -1.09375 C 4.003906 -1.09375 4.585938 -1.1875 5.109375 -1.375 C 5.628906 -1.570312 6.085938 -1.859375 6.484375 -2.234375 C 6.890625 -2.617188 7.195312 -3.078125 7.40625 -3.609375 C 7.625 -4.140625 7.734375 -4.695312 7.734375 -5.28125 C 7.734375 -6.039062 7.5625 -6.726562 7.21875 -7.34375 C 6.882812 -7.96875 6.398438 -8.476562 5.765625 -8.875 C 5.140625 -9.269531 4.296875 -9.46875 3.234375 -9.46875 L 2.234375 -9.46875 L 2.234375 -1.09375 Z M 3.359375 -1.09375 "/></g></g></g><g fill="#272727" fill-opacity="1"><g transform="translate(201.769353, 311.535272)"><g><path d="M 2.265625 -10.5625 L 2.265625 0 L 1.09375 0 L 1.09375 -10.5625 Z M 2.265625 -10.5625 "/></g></g></g><g fill="#272727" fill-opacity="1"><g transform="translate(208.613474, 311.535272)"><g><path d="M 0.53125 -5.265625 C 0.53125 -6.234375 0.773438 -7.132812 1.265625 -7.96875 C 1.753906 -8.8125 2.421875 -9.484375 3.265625 -9.984375 C 4.117188 -10.484375 5.039062 -10.734375 6.03125 -10.734375 C 7.007812 -10.734375 7.921875 -10.488281 8.765625 -10 C 9.609375 -9.519531 10.28125 -8.851562 10.78125 -8 C 11.28125 -7.15625 11.53125 -6.242188 11.53125 -5.265625 C 11.53125 -4.296875 11.285156 -3.390625 10.796875 -2.546875 C 10.304688 -1.703125 9.640625 -1.035156 8.796875 -0.546875 C 7.953125 -0.0546875 7.03125 0.1875 6.03125 0.1875 C 5.050781 0.1875 4.132812 -0.0546875 3.28125 -0.546875 C 2.4375 -1.035156 1.765625 -1.703125 1.265625 -2.546875 C 0.773438 -3.390625 0.53125 -4.296875 0.53125 -5.265625 Z M 6.015625 -9.640625 C 5.234375 -9.640625 4.507812 -9.4375 3.84375 -9.03125 C 3.1875 -8.632812 2.664062 -8.101562 2.28125 -7.4375 C 1.894531 -6.769531 1.703125 -6.050781 1.703125 -5.28125 C 1.703125 -4.5 1.898438 -3.769531 2.296875 -3.09375 C 2.691406 -2.425781 3.222656 -1.894531 3.890625 -1.5 C 4.554688 -1.101562 5.269531 -0.90625 6.03125 -0.90625 C 6.8125 -0.90625 7.535156 -1.101562 8.203125 -1.5 C 8.878906 -1.90625 9.40625 -2.441406 9.78125 -3.109375 C 10.164062 -3.785156 10.359375 -4.507812 10.359375 -5.28125 C 10.359375 -6.0625 10.164062 -6.789062 9.78125 -7.46875 C 9.394531 -8.144531 8.867188 -8.675781 8.203125 -9.0625 C 7.535156 -9.445312 6.804688 -9.640625 6.015625 -9.640625 Z M 6.015625 -9.640625 "/></g></g></g></svg>