<svg xmlns="http://www.w3.org/2000/svg" xmlns:xlink="http://www.w3.org/1999/xlink" width="1280" zoomAndPan="magnify" viewBox="0 0 960 297.749993" height="397" preserveAspectRatio="xMidYMid meet" version="1.0"><defs><g/><clipPath id="0654354c5d"><path d="M 0.402344 0 L 959.597656 0 L 959.597656 297.5 L 0.402344 297.5 Z M 0.402344 0 " clip-rule="nonzero"/></clipPath><clipPath id="95200e91b5"><path d="M 30.378906 -0.316406 L 929.621094 -0.316406 C 937.570312 -0.316406 945.195312 2.84375 950.816406 8.464844 C 956.4375 14.085938 959.597656 21.710938 959.597656 29.660156 L 959.597656 269.585938 C 959.597656 277.535156 956.4375 285.160156 950.816406 290.78125 C 945.195312 296.402344 937.570312 299.558594 929.621094 299.558594 L 30.378906 299.558594 C 22.425781 299.558594 14.804688 296.402344 9.183594 290.78125 C 3.5625 285.160156 0.402344 277.535156 0.402344 269.585938 L 0.402344 29.660156 C 0.402344 21.710938 3.5625 14.085938 9.183594 8.464844 C 14.804688 2.84375 22.425781 -0.316406 30.378906 -0.316406 Z M 30.378906 -0.316406 " clip-rule="nonzero"/></clipPath><clipPath id="67e9c30ddb"><path d="M 30.101562 44.160156 L 239.175781 44.160156 L 239.175781 253.234375 L 30.101562 253.234375 Z M 30.101562 44.160156 " clip-rule="nonzero"/></clipPath><clipPath id="258320a0c2"><path d="M 269.511719 74.742188 L 929.5 74.742188 L 929.5 283.816406 L 269.511719 283.816406 Z M 269.511719 74.742188 " clip-rule="nonzero"/></clipPath></defs><g clip-path="url(#0654354c5d)"><g clip-path="url(#95200e91b5)"><path fill="#51ba62" d="M 0.402344 -0.316406 L 959.765625 -0.316406 L 959.765625 299.558594 L 0.402344 299.558594 Z M 0.402344 -0.316406 " fill-opacity="1" fill-rule="nonzero"/></g></g><g clip-path="url(#67e9c30ddb)"><path fill="#ffffff" d="M 134.925781 44.160156 C 77.859375 44.160156 31.40625 90.632812 31.382812 147.753906 C 31.378906 166.011719 36.148438 183.835938 45.207031 199.542969 L 30.519531 253.234375 L 85.40625 238.828125 C 100.53125 247.082031 117.554688 251.429688 134.882812 251.4375 L 134.925781 251.4375 C 191.988281 251.4375 238.4375 204.957031 238.460938 147.839844 C 238.472656 120.15625 227.714844 94.128906 208.164062 74.550781 C 188.617188 54.964844 162.621094 44.171875 134.925781 44.160156 Z M 134.925781 233.941406 L 134.890625 233.941406 C 119.449219 233.941406 104.300781 229.78125 91.089844 221.9375 L 87.949219 220.074219 L 55.382812 228.625 L 64.070312 196.847656 L 62.027344 193.589844 C 53.414062 179.878906 48.863281 164.03125 48.867188 147.765625 C 48.886719 100.285156 87.496094 61.664062 134.960938 61.664062 C 157.949219 61.667969 179.554688 70.636719 195.800781 86.914062 C 212.050781 103.1875 220.988281 124.824219 220.984375 147.832031 C 220.964844 195.308594 182.359375 233.941406 134.925781 233.941406 Z M 182.128906 169.453125 C 179.542969 168.15625 166.820312 161.894531 164.449219 161.027344 C 162.078125 160.160156 160.351562 159.730469 158.625 162.324219 C 156.902344 164.914062 151.945312 170.746094 150.4375 172.472656 C 148.929688 174.207031 147.417969 174.417969 144.832031 173.121094 C 142.25 171.824219 133.910156 169.089844 124.03125 160.269531 C 116.339844 153.410156 111.148438 144.929688 109.640625 142.339844 C 108.132812 139.746094 109.476562 138.347656 110.777344 137.058594 C 111.941406 135.902344 113.363281 134.035156 114.65625 132.523438 C 115.953125 131.007812 116.382812 129.929688 117.242188 128.199219 C 118.101562 126.472656 117.671875 124.957031 117.023438 123.664062 C 116.375 122.367188 111.203125 109.625 109.046875 104.441406 C 106.945312 99.398438 104.816406 100.074219 103.222656 99.996094 C 101.71875 99.917969 99.992188 99.90625 98.265625 99.90625 C 96.542969 99.90625 93.742188 100.554688 91.367188 103.144531 C 88.996094 105.738281 82.3125 112 82.3125 124.742188 C 82.3125 137.480469 91.585938 149.792969 92.875 151.519531 C 94.171875 153.246094 111.117188 179.394531 137.070312 190.605469 C 143.242188 193.269531 148.058594 194.863281 151.816406 196.054688 C 158.015625 198.023438 163.65625 197.746094 168.109375 197.078125 C 173.078125 196.332031 183.417969 190.816406 185.570312 184.765625 C 187.726562 178.722656 187.726562 173.539062 187.078125 172.457031 C 186.429688 171.378906 184.707031 170.730469 182.121094 169.433594 Z M 365.292969 167.871094 L 365.015625 167.871094 L 347.851562 98.578125 L 327.164062 98.578125 L 309.714844 167.023438 L 309.4375 167.023438 L 293.539062 98.578125 L 271.449219 98.578125 L 298.042969 199.136719 L 320.417969 199.136719 L 337.15625 130.6875 L 337.441406 130.6875 L 354.464844 199.136719 L 376.417969 199.136719 L 403.433594 98.578125 L 381.769531 98.578125 L 365.300781 167.871094 Z M 470.828125 132.589844 C 468.859375 130.007812 466.160156 127.992188 462.742188 126.535156 C 459.316406 125.085938 454.929688 124.359375 449.585938 124.359375 C 445.832031 124.359375 441.988281 125.316406 438.042969 127.246094 C 434.101562 129.167969 430.871094 132.242188 428.335938 136.472656 L 427.910156 136.472656 L 427.910156 98.578125 L 407.933594 98.578125 L 407.933594 199.132812 L 427.910156 199.132812 L 427.910156 160.96875 C 427.910156 153.546875 429.128906 148.226562 431.574219 144.980469 C 434.011719 141.746094 437.953125 140.121094 443.390625 140.121094 C 448.175781 140.121094 451.503906 141.601562 453.386719 144.5625 C 455.261719 147.515625 456.199219 152 456.199219 158.003906 L 456.199219 199.132812 L 476.183594 199.132812 L 476.183594 154.347656 C 476.183594 149.84375 475.777344 145.738281 474.984375 142.023438 C 474.1875 138.324219 472.808594 135.175781 470.832031 132.589844 Z M 553.144531 182.9375 L 553.144531 145.058594 C 553.144531 140.636719 552.164062 137.09375 550.183594 134.425781 C 548.21875 131.746094 545.6875 129.65625 542.59375 128.15625 C 539.496094 126.65625 536.070312 125.644531 532.320312 125.128906 C 528.566406 124.613281 524.863281 124.351562 521.207031 124.351562 C 517.175781 124.351562 513.164062 124.746094 509.179688 125.550781 C 505.1875 126.351562 501.601562 127.691406 498.414062 129.566406 C 495.222656 131.445312 492.589844 133.933594 490.539062 137.027344 C 488.46875 140.128906 487.296875 144.023438 487.015625 148.722656 L 506.996094 148.722656 C 507.371094 144.78125 508.691406 141.957031 510.941406 140.269531 C 513.195312 138.578125 516.285156 137.738281 520.226562 137.738281 C 522.003906 137.738281 523.671875 137.851562 525.21875 138.089844 C 526.761719 138.324219 528.125 138.785156 529.296875 139.492188 C 530.472656 140.195312 531.410156 141.183594 532.113281 142.453125 C 532.816406 143.71875 533.167969 145.441406 533.167969 147.589844 C 533.257812 149.660156 532.644531 151.222656 531.339844 152.308594 C 530.019531 153.390625 528.238281 154.214844 525.988281 154.773438 C 523.738281 155.339844 521.160156 155.765625 518.246094 156.039062 C 515.335938 156.328125 512.382812 156.710938 509.386719 157.171875 C 506.378906 157.640625 503.402344 158.273438 500.453125 159.070312 C 497.5 159.863281 494.859375 161.070312 492.566406 162.65625 C 490.265625 164.261719 488.390625 166.394531 486.933594 169.070312 C 485.480469 171.746094 484.753906 175.15625 484.753906 179.28125 C 484.753906 183.035156 485.390625 186.273438 486.652344 188.992188 C 487.917969 191.726562 489.679688 193.972656 491.933594 195.757812 C 494.183594 197.542969 496.808594 198.859375 499.8125 199.707031 C 502.808594 200.546875 506.050781 200.972656 509.519531 200.972656 C 514.023438 200.972656 518.433594 200.3125 522.742188 199.003906 C 527.058594 197.679688 530.816406 195.390625 534.007812 192.09375 C 534.097656 193.316406 534.261719 194.515625 534.496094 195.6875 C 534.734375 196.855469 535.035156 198.011719 535.410156 199.132812 L 555.675781 199.132812 C 554.734375 197.636719 554.078125 195.382812 553.703125 192.375 C 553.320312 189.371094 553.132812 186.234375 553.132812 182.9375 Z M 533.164062 170.964844 C 533.164062 172.105469 533.050781 173.605469 532.816406 175.476562 C 532.585938 177.359375 531.949219 179.207031 530.914062 181.042969 C 529.878906 182.871094 528.28125 184.453125 526.128906 185.761719 C 523.972656 187.082031 520.921875 187.734375 516.976562 187.734375 C 515.382812 187.734375 513.835938 187.59375 512.335938 187.304688 C 510.832031 187.027344 509.519531 186.527344 508.394531 185.828125 C 507.269531 185.125 506.378906 184.160156 505.71875 182.9375 C 505.066406 181.714844 504.730469 180.21875 504.730469 178.4375 C 504.730469 176.5625 505.066406 175.003906 505.71875 173.789062 C 506.378906 172.570312 507.242188 171.558594 508.328125 170.757812 C 509.398438 169.960938 510.667969 169.332031 512.121094 168.859375 C 513.574219 168.390625 515.050781 168.015625 516.558594 167.730469 C 518.148438 167.453125 519.75 167.210938 521.339844 167.027344 C 522.945312 166.847656 524.460938 166.605469 525.914062 166.328125 C 527.375 166.042969 528.730469 165.691406 530 165.265625 C 531.265625 164.84375 532.320312 164.269531 533.164062 163.511719 L 533.164062 170.972656 Z M 590.4375 104.496094 L 570.453125 104.496094 L 570.453125 126.320312 L 558.355469 126.320312 L 558.355469 139.699219 L 570.453125 139.699219 L 570.453125 182.660156 C 570.453125 186.324219 571.070312 189.277344 572.289062 191.53125 C 573.511719 193.785156 575.175781 195.527344 577.28125 196.746094 C 579.394531 197.96875 581.832031 198.785156 584.605469 199.203125 C 587.363281 199.621094 590.304688 199.839844 593.398438 199.839844 C 595.378906 199.839844 597.386719 199.792969 599.457031 199.707031 C 601.515625 199.609375 603.390625 199.429688 605.085938 199.136719 L 605.085938 183.648438 C 604.140625 183.835938 603.160156 183.984375 602.125 184.070312 C 601.097656 184.167969 600.019531 184.214844 598.894531 184.214844 C 595.523438 184.214844 593.265625 183.648438 592.140625 182.519531 C 591.019531 181.394531 590.457031 179.140625 590.457031 175.753906 L 590.457031 139.699219 L 605.089844 139.699219 L 605.089844 126.320312 L 590.457031 126.320312 L 590.457031 104.496094 Z M 673.027344 167.242188 C 671.714844 164.941406 669.976562 163.015625 667.824219 161.464844 C 665.667969 159.917969 663.199219 158.671875 660.4375 157.726562 C 657.667969 156.792969 654.828125 156 651.921875 155.339844 C 649.109375 154.679688 646.351562 154.070312 643.625 153.507812 C 640.902344 152.941406 638.488281 152.308594 636.375 151.609375 C 634.269531 150.902344 632.5625 149.992188 631.25 148.863281 C 629.929688 147.734375 629.28125 146.289062 629.28125 144.496094 C 629.28125 142.992188 629.644531 141.792969 630.402344 140.902344 C 631.152344 140.015625 632.074219 139.335938 633.148438 138.855469 C 634.234375 138.390625 635.417969 138.089844 636.734375 137.941406 C 638.046875 137.804688 639.269531 137.738281 640.386719 137.738281 C 643.953125 137.738281 647.050781 138.414062 649.683594 139.777344 C 652.304688 141.140625 653.761719 143.746094 654.035156 147.589844 L 673.035156 147.589844 C 672.660156 143.085938 671.507812 139.355469 669.585938 136.390625 C 667.664062 133.4375 665.246094 131.070312 662.339844 129.28125 C 659.433594 127.496094 656.128906 126.230469 652.414062 125.480469 C 648.710938 124.730469 644.890625 124.351562 640.957031 124.351562 C 637.023438 124.351562 633.160156 124.703125 629.421875 125.402344 C 625.664062 126.109375 622.285156 127.332031 619.289062 129.070312 C 616.28125 130.808594 613.875 133.175781 612.039062 136.179688 C 610.207031 139.183594 609.292969 143.035156 609.292969 147.730469 C 609.292969 150.921875 609.953125 153.628906 611.269531 155.832031 C 612.570312 158.042969 614.316406 159.863281 616.464844 161.324219 C 618.628906 162.777344 621.09375 163.957031 623.859375 164.84375 C 626.625 165.746094 629.464844 166.515625 632.367188 167.175781 C 639.503906 168.675781 645.066406 170.179688 649.050781 171.6875 C 653.039062 173.1875 655.027344 175.441406 655.027344 178.445312 C 655.027344 180.230469 654.609375 181.695312 653.765625 182.871094 C 652.917969 184.050781 651.863281 184.984375 650.597656 185.6875 C 649.328125 186.394531 647.917969 186.917969 646.375 187.238281 C 644.824219 187.570312 643.339844 187.734375 641.9375 187.734375 C 639.964844 187.734375 638.070312 187.5 636.242188 187.03125 C 634.410156 186.558594 632.792969 185.832031 631.382812 184.84375 C 629.976562 183.859375 628.824219 182.59375 627.933594 181.042969 C 627.050781 179.492188 626.59375 177.644531 626.59375 175.476562 L 607.601562 175.476562 C 607.796875 180.359375 608.890625 184.421875 610.914062 187.660156 C 612.921875 190.902344 615.5 193.503906 618.648438 195.480469 C 621.789062 197.449219 625.382812 198.859375 629.421875 199.707031 C 633.445312 200.546875 637.574219 200.972656 641.792969 200.972656 C 646.011719 200.972656 649.980469 200.574219 653.96875 199.78125 C 657.957031 198.980469 661.5 197.59375 664.589844 195.621094 C 667.695312 193.652344 670.191406 191.046875 672.121094 187.808594 C 674.039062 184.5625 675 180.550781 675 175.761719 C 675 172.375 674.347656 169.542969 673.035156 167.246094 Z M 712.707031 98.578125 L 674.714844 199.136719 L 696.945312 199.136719 L 704.820312 176.742188 L 742.394531 176.742188 L 749.984375 199.136719 L 772.925781 199.136719 L 735.359375 98.578125 L 712.699219 98.578125 Z M 710.601562 160.269531 L 723.683594 123.371094 L 723.964844 123.371094 L 736.632812 160.269531 Z M 842.019531 136.1875 C 839.300781 132.621094 835.875 129.753906 831.75 127.597656 C 827.621094 125.4375 822.699219 124.359375 816.980469 124.359375 C 812.472656 124.359375 808.351562 125.25 804.597656 127.03125 C 800.832031 128.816406 797.746094 131.679688 795.3125 135.625 L 795.03125 135.625 L 795.03125 126.320312 L 776.027344 126.320312 L 776.027344 224.632812 L 796.023438 224.632812 L 796.023438 190.125 L 796.292969 190.125 C 798.734375 193.699219 801.855469 196.394531 805.664062 198.21875 C 809.453125 200.046875 813.609375 200.964844 818.113281 200.964844 C 823.464844 200.964844 828.128906 199.925781 832.113281 197.867188 C 836.101562 195.800781 839.429688 193.027344 842.105469 189.550781 C 844.78125 186.074219 846.765625 182.089844 848.089844 177.585938 C 849.390625 173.074219 850.058594 168.378906 850.058594 163.5 C 850.058594 158.332031 849.390625 153.386719 848.089844 148.636719 C 846.765625 143.902344 844.753906 139.742188 842.03125 136.175781 Z M 829.21875 171.535156 C 828.648438 174.355469 827.6875 176.816406 826.332031 178.929688 C 824.96875 181.042969 823.191406 182.761719 820.976562 184.070312 C 818.777344 185.382812 816.03125 186.050781 812.75 186.050781 C 809.46875 186.050781 806.851562 185.390625 804.597656 184.070312 C 802.347656 182.761719 800.539062 181.042969 799.175781 178.929688 C 797.8125 176.816406 796.832031 174.355469 796.222656 171.535156 C 795.609375 168.71875 795.3125 165.855469 795.3125 162.953125 C 795.3125 160.054688 795.585938 157.03125 796.148438 154.222656 C 796.71875 151.40625 797.675781 148.914062 799.042969 146.746094 C 800.390625 144.59375 802.183594 142.835938 804.394531 141.472656 C 806.597656 140.109375 809.332031 139.421875 812.617188 139.421875 C 815.902344 139.421875 818.511719 140.109375 820.710938 141.472656 C 822.914062 142.828125 824.722656 144.609375 826.125 146.820312 C 827.53125 149.03125 828.535156 151.542969 829.152344 154.355469 C 829.769531 157.171875 830.058594 160.039062 830.058594 162.953125 C 830.058594 165.867188 829.789062 168.726562 829.226562 171.535156 Z M 927.707031 148.648438 C 926.394531 143.914062 924.378906 139.753906 921.65625 136.1875 C 918.933594 132.621094 915.519531 129.753906 911.390625 127.597656 C 907.257812 125.4375 902.332031 124.359375 896.609375 124.359375 C 892.113281 124.359375 887.980469 125.25 884.234375 127.03125 C 880.480469 128.816406 877.382812 131.679688 874.945312 135.625 L 874.671875 135.625 L 874.671875 126.320312 L 855.671875 126.320312 L 855.671875 224.632812 L 875.652344 224.632812 L 875.652344 190.125 L 875.9375 190.125 C 878.375 193.699219 881.5 196.394531 885.292969 198.21875 C 889.089844 200.046875 893.246094 200.964844 897.75 200.964844 C 903.09375 200.964844 907.753906 199.925781 911.746094 197.867188 C 915.730469 195.800781 919.066406 193.027344 921.734375 189.550781 C 924.414062 186.074219 926.402344 182.089844 927.714844 177.585938 C 929.035156 173.074219 929.6875 168.378906 929.6875 163.5 C 929.6875 158.332031 929.035156 153.386719 927.714844 148.636719 Z M 908.847656 171.535156 C 908.292969 174.355469 907.328125 176.816406 905.96875 178.929688 C 904.601562 181.042969 902.820312 182.761719 900.617188 184.070312 C 898.414062 185.382812 895.671875 186.050781 892.386719 186.050781 C 889.101562 186.050781 886.472656 185.390625 884.222656 184.070312 C 881.964844 182.761719 880.167969 181.042969 878.800781 178.929688 C 877.445312 176.816406 876.457031 174.355469 875.847656 171.535156 C 875.234375 168.71875 874.933594 165.855469 874.933594 162.953125 C 874.933594 160.054688 875.214844 157.03125 875.777344 154.222656 C 876.34375 151.40625 877.304688 148.914062 878.667969 146.746094 C 880.023438 144.59375 881.808594 142.835938 884.015625 141.472656 C 886.214844 140.109375 888.960938 139.421875 892.246094 139.421875 C 895.535156 139.421875 898.128906 140.109375 900.332031 141.472656 C 902.542969 142.828125 904.347656 144.609375 905.757812 146.820312 C 907.167969 149.03125 908.175781 151.542969 908.78125 154.355469 C 909.398438 157.171875 909.695312 160.039062 909.695312 162.953125 C 909.695312 165.867188 909.410156 168.726562 908.847656 171.535156 Z M 908.847656 171.535156 " fill-opacity="1" fill-rule="nonzero"/></g><g clip-path="url(#258320a0c2)"><path fill="#ffffff" d="M 134.332031 74.742188 C 77.265625 74.742188 30.8125 121.214844 30.789062 178.332031 C 30.78125 196.589844 35.550781 214.414062 44.613281 230.125 L 29.921875 283.816406 L 84.8125 269.40625 C 99.9375 277.660156 116.960938 282.011719 134.289062 282.015625 L 134.332031 282.015625 C 191.390625 282.015625 237.84375 235.539062 237.867188 178.417969 C 237.878906 150.734375 227.117188 124.707031 207.570312 105.128906 C 188.019531 85.542969 162.027344 74.753906 134.332031 74.742188 Z M 134.332031 264.519531 L 134.292969 264.519531 C 118.855469 264.519531 103.707031 260.359375 90.496094 252.519531 L 87.351562 250.652344 L 54.785156 259.203125 L 63.476562 227.429688 L 61.429688 224.171875 C 52.820312 210.460938 48.269531 194.609375 48.273438 178.34375 C 48.292969 130.867188 86.898438 92.242188 134.367188 92.242188 C 157.355469 92.25 178.960938 101.21875 195.203125 117.496094 C 211.457031 133.765625 220.394531 155.40625 220.386719 178.410156 C 220.371094 225.890625 181.761719 264.519531 134.332031 264.519531 Z M 181.53125 200.03125 C 178.949219 198.734375 166.226562 192.472656 163.855469 191.609375 C 161.480469 190.742188 159.757812 190.3125 158.03125 192.902344 C 156.308594 195.496094 151.351562 201.328125 149.84375 203.054688 C 148.335938 204.785156 146.824219 204.996094 144.238281 203.703125 C 141.65625 202.40625 133.3125 199.667969 123.4375 190.851562 C 115.746094 183.988281 110.550781 175.511719 109.042969 172.917969 C 107.539062 170.328125 108.882812 168.929688 110.183594 167.636719 C 111.34375 166.480469 112.765625 164.617188 114.0625 163.101562 C 115.355469 161.589844 115.785156 160.511719 116.644531 158.777344 C 117.507812 157.050781 117.078125 155.539062 116.429688 154.242188 C 115.78125 152.945312 110.605469 140.203125 108.453125 135.019531 C 106.351562 129.976562 104.222656 130.65625 102.628906 130.574219 C 101.121094 130.496094 99.398438 130.484375 97.671875 130.484375 C 95.949219 130.484375 93.144531 131.132812 90.773438 133.726562 C 88.402344 136.316406 81.71875 142.578125 81.71875 155.320312 C 81.71875 168.0625 90.992188 180.375 92.28125 182.101562 C 93.574219 183.824219 110.523438 209.976562 136.472656 221.183594 C 142.648438 223.847656 147.464844 225.441406 151.222656 226.636719 C 157.421875 228.601562 163.0625 228.324219 167.515625 227.660156 C 172.484375 226.914062 182.820312 221.398438 184.976562 215.347656 C 187.132812 209.304688 187.132812 204.117188 186.484375 203.035156 C 185.835938 201.957031 184.109375 201.308594 181.527344 200.011719 Z M 364.699219 198.449219 L 364.421875 198.449219 L 347.257812 129.160156 L 326.570312 129.160156 L 309.121094 197.601562 L 308.84375 197.601562 L 292.941406 129.160156 L 270.851562 129.160156 L 297.445312 229.71875 L 319.820312 229.71875 L 336.5625 161.265625 L 336.847656 161.265625 L 353.871094 229.71875 L 375.824219 229.71875 L 402.839844 129.160156 L 381.171875 129.160156 L 364.707031 198.449219 Z M 470.234375 163.167969 C 468.265625 160.589844 465.566406 158.574219 462.148438 157.113281 C 458.722656 155.664062 454.332031 154.9375 448.988281 154.9375 C 445.238281 154.9375 441.394531 155.894531 437.449219 157.828125 C 433.507812 159.746094 430.277344 162.824219 427.738281 167.050781 L 427.316406 167.050781 L 427.316406 129.160156 L 407.335938 129.160156 L 407.335938 229.710938 L 427.316406 229.710938 L 427.316406 191.546875 C 427.316406 184.128906 428.53125 178.804688 430.976562 175.558594 C 433.417969 172.324219 437.355469 170.703125 442.796875 170.703125 C 447.578125 170.703125 450.90625 172.179688 452.789062 175.140625 C 454.667969 178.097656 455.605469 182.578125 455.605469 188.585938 L 455.605469 229.710938 L 475.589844 229.710938 L 475.589844 184.929688 C 475.589844 180.421875 475.183594 176.316406 474.390625 172.605469 C 473.589844 168.902344 472.210938 165.753906 470.238281 163.167969 Z M 552.550781 213.519531 L 552.550781 175.636719 C 552.550781 171.21875 551.570312 167.675781 549.589844 165.003906 C 547.621094 162.328125 545.09375 160.238281 542 158.734375 C 538.902344 157.234375 535.476562 156.222656 531.722656 155.707031 C 527.972656 155.191406 524.265625 154.933594 520.613281 154.933594 C 516.582031 154.933594 512.566406 155.328125 508.585938 156.132812 C 504.589844 156.929688 501.007812 158.269531 497.820312 160.148438 C 494.628906 162.023438 491.996094 164.511719 489.945312 167.609375 C 487.875 170.707031 486.699219 174.601562 486.421875 179.300781 L 506.402344 179.300781 C 506.777344 175.359375 508.09375 172.539062 510.347656 170.847656 C 512.597656 169.160156 515.691406 168.316406 519.632812 168.316406 C 521.410156 168.316406 523.074219 168.429688 524.625 168.667969 C 526.167969 168.902344 527.53125 169.363281 528.703125 170.074219 C 529.878906 170.773438 530.816406 171.761719 531.519531 173.035156 C 532.21875 174.300781 532.570312 176.019531 532.570312 178.167969 C 532.660156 180.242188 532.050781 181.804688 530.742188 182.886719 C 529.425781 183.972656 527.644531 184.792969 525.394531 185.351562 C 523.140625 185.921875 520.5625 186.34375 517.652344 186.617188 C 514.742188 186.90625 511.789062 187.289062 508.792969 187.75 C 505.785156 188.222656 502.804688 188.851562 499.859375 189.652344 C 496.90625 190.445312 494.265625 191.648438 491.972656 193.238281 C 489.671875 194.839844 487.796875 196.972656 486.335938 199.648438 C 484.886719 202.328125 484.160156 205.734375 484.160156 209.859375 C 484.160156 213.613281 484.792969 216.855469 486.058594 219.574219 C 487.324219 222.304688 489.085938 224.550781 491.335938 226.339844 C 493.589844 228.125 496.214844 229.4375 499.21875 230.285156 C 502.210938 231.128906 505.457031 231.550781 508.925781 231.550781 C 513.425781 231.550781 517.839844 230.890625 522.148438 229.585938 C 526.464844 228.257812 530.222656 225.96875 533.414062 222.675781 C 533.503906 223.898438 533.667969 225.097656 533.902344 226.265625 C 534.136719 227.433594 534.441406 228.589844 534.816406 229.710938 L 555.078125 229.710938 C 554.140625 228.214844 553.480469 225.960938 553.105469 222.953125 C 552.726562 219.949219 552.539062 216.8125 552.539062 213.519531 Z M 532.570312 201.546875 C 532.570312 202.683594 532.457031 204.1875 532.21875 206.058594 C 531.988281 207.941406 531.355469 209.789062 530.320312 211.621094 C 529.285156 213.453125 527.6875 215.03125 525.53125 216.339844 C 523.378906 217.660156 520.328125 218.3125 516.382812 218.3125 C 514.789062 218.3125 513.238281 218.175781 511.738281 217.882812 C 510.238281 217.605469 508.925781 217.109375 507.800781 216.40625 C 506.671875 215.703125 505.785156 214.742188 505.125 213.519531 C 504.46875 212.292969 504.136719 210.796875 504.136719 209.019531 C 504.136719 207.140625 504.46875 205.585938 505.125 204.367188 C 505.785156 203.148438 506.648438 202.140625 507.734375 201.339844 C 508.804688 200.539062 510.074219 199.910156 511.527344 199.4375 C 512.980469 198.972656 514.457031 198.597656 515.964844 198.3125 C 517.554688 198.03125 519.152344 197.789062 520.746094 197.609375 C 522.347656 197.425781 523.867188 197.183594 525.320312 196.90625 C 526.777344 196.621094 528.132812 196.269531 529.40625 195.847656 C 530.671875 195.421875 531.722656 194.847656 532.570312 194.089844 L 532.570312 201.550781 Z M 589.84375 135.074219 L 569.859375 135.074219 L 569.859375 156.902344 L 557.761719 156.902344 L 557.761719 170.277344 L 569.859375 170.277344 L 569.859375 213.238281 C 569.859375 216.902344 570.476562 219.859375 571.691406 222.109375 C 572.914062 224.363281 574.578125 226.109375 576.6875 227.324219 C 578.796875 228.546875 581.238281 229.367188 584.007812 229.785156 C 586.769531 230.203125 589.710938 230.417969 592.804688 230.417969 C 594.78125 230.417969 596.792969 230.371094 598.863281 230.285156 C 600.917969 230.191406 602.796875 230.007812 604.488281 229.71875 L 604.488281 214.226562 C 603.546875 214.414062 602.566406 214.566406 601.53125 214.648438 C 600.5 214.746094 599.425781 214.796875 598.296875 214.796875 C 594.925781 214.796875 592.671875 214.226562 591.542969 213.101562 C 590.425781 211.972656 589.863281 209.722656 589.863281 206.335938 L 589.863281 170.277344 L 604.496094 170.277344 L 604.496094 156.902344 L 589.863281 156.902344 L 589.863281 135.074219 Z M 672.433594 197.820312 C 671.121094 195.519531 669.382812 193.59375 667.226562 192.042969 C 665.074219 190.5 662.605469 189.25 659.84375 188.308594 C 657.074219 187.375 654.234375 186.582031 651.328125 185.921875 C 648.515625 185.261719 645.753906 184.648438 643.03125 184.085938 C 640.308594 183.523438 637.894531 182.886719 635.78125 182.191406 C 633.675781 181.480469 631.96875 180.574219 630.652344 179.441406 C 629.335938 178.316406 628.6875 176.867188 628.6875 175.074219 C 628.6875 173.574219 629.050781 172.375 629.808594 171.484375 C 630.558594 170.59375 631.476562 169.914062 632.554688 169.4375 C 633.636719 168.96875 634.824219 168.667969 636.136719 168.523438 C 637.449219 168.382812 638.671875 168.316406 639.792969 168.316406 C 643.359375 168.316406 646.457031 168.996094 649.089844 170.355469 C 651.710938 171.71875 653.167969 174.324219 653.441406 178.167969 L 672.4375 178.167969 C 672.0625 173.664062 670.914062 169.933594 668.988281 166.972656 C 667.070312 164.015625 664.648438 161.648438 661.746094 159.863281 C 658.839844 158.074219 655.535156 156.808594 651.820312 156.058594 C 648.113281 155.308594 644.296875 154.933594 640.363281 154.933594 C 636.429688 154.933594 632.566406 155.285156 628.828125 155.980469 C 625.066406 156.6875 621.691406 157.914062 618.695312 159.652344 C 615.6875 161.386719 613.277344 163.757812 611.445312 166.761719 C 609.609375 169.765625 608.695312 173.617188 608.695312 178.308594 C 608.695312 181.5 609.355469 184.207031 610.675781 186.410156 C 611.976562 188.621094 613.71875 190.445312 615.867188 191.902344 C 618.035156 193.359375 620.5 194.539062 623.265625 195.421875 C 626.03125 196.324219 628.867188 197.09375 631.773438 197.753906 C 638.910156 199.257812 644.472656 200.757812 648.453125 202.265625 C 652.441406 203.769531 654.433594 206.019531 654.433594 209.023438 C 654.433594 210.8125 654.015625 212.277344 653.167969 213.453125 C 652.320312 214.632812 651.269531 215.566406 650.003906 216.265625 C 648.734375 216.976562 647.320312 217.496094 645.777344 217.816406 C 644.230469 218.152344 642.746094 218.3125 641.34375 218.3125 C 639.371094 218.3125 637.476562 218.078125 635.648438 217.613281 C 633.8125 217.140625 632.199219 216.414062 630.789062 215.425781 C 629.382812 214.4375 628.226562 213.171875 627.335938 211.621094 C 626.453125 210.070312 626 208.226562 626 206.058594 L 607.007812 206.058594 C 607.203125 210.9375 608.296875 215 610.320312 218.242188 C 612.328125 221.480469 614.90625 224.085938 618.054688 226.058594 C 621.195312 228.027344 624.789062 229.4375 628.828125 230.285156 C 632.851562 231.128906 636.980469 231.550781 641.199219 231.550781 C 645.414062 231.550781 649.386719 231.152344 653.375 230.359375 C 657.363281 229.558594 660.902344 228.171875 663.996094 226.199219 C 667.101562 224.230469 669.59375 221.625 671.523438 218.386719 C 673.445312 215.140625 674.40625 211.132812 674.40625 206.339844 C 674.40625 202.957031 673.753906 200.121094 672.4375 197.828125 Z M 712.113281 129.160156 L 674.121094 229.71875 L 696.351562 229.71875 L 704.226562 207.324219 L 741.796875 207.324219 L 749.386719 229.71875 L 772.332031 229.71875 L 734.765625 129.160156 L 712.105469 129.160156 Z M 710.003906 190.851562 L 723.089844 153.953125 L 723.367188 153.953125 L 736.035156 190.851562 Z M 841.425781 166.765625 C 838.707031 163.199219 835.28125 160.335938 831.152344 158.179688 C 827.027344 156.015625 822.105469 154.9375 816.386719 154.9375 C 811.878906 154.9375 807.753906 155.828125 804.003906 157.609375 C 800.238281 159.394531 797.152344 162.261719 794.71875 166.203125 L 794.433594 166.203125 L 794.433594 156.902344 L 775.429688 156.902344 L 775.429688 255.210938 L 795.425781 255.210938 L 795.425781 220.707031 L 795.699219 220.707031 C 798.140625 224.277344 801.261719 226.972656 805.070312 228.796875 C 808.855469 230.625 813.015625 231.546875 817.519531 231.546875 C 822.867188 231.546875 827.535156 230.503906 831.515625 228.445312 C 835.503906 226.378906 838.835938 223.605469 841.507812 220.132812 C 844.183594 216.65625 846.167969 212.671875 847.496094 208.164062 C 848.796875 203.652344 849.460938 198.960938 849.460938 194.078125 C 849.460938 188.914062 848.796875 183.964844 847.496094 179.21875 C 846.167969 174.480469 844.160156 170.320312 841.4375 166.753906 Z M 828.625 202.113281 C 828.054688 204.9375 827.09375 207.394531 825.738281 209.507812 C 824.375 211.621094 822.597656 213.34375 820.382812 214.648438 C 818.183594 215.964844 815.4375 216.628906 812.15625 216.628906 C 808.875 216.628906 806.253906 215.96875 804.003906 214.648438 C 801.753906 213.34375 799.941406 211.621094 798.582031 209.507812 C 797.21875 207.394531 796.238281 204.9375 795.628906 202.113281 C 795.015625 199.296875 794.71875 196.433594 794.71875 193.535156 C 794.71875 190.632812 794.992188 187.609375 795.554688 184.800781 C 796.125 181.984375 797.078125 179.496094 798.449219 177.328125 C 799.796875 175.171875 801.589844 173.414062 803.796875 172.054688 C 806 170.691406 808.738281 170 812.023438 170 C 815.308594 170 817.917969 170.691406 820.113281 172.054688 C 822.316406 173.410156 824.128906 175.191406 825.53125 177.398438 C 826.933594 179.609375 827.941406 182.125 828.558594 184.933594 C 829.175781 187.75 829.464844 190.621094 829.464844 193.535156 C 829.464844 196.445312 829.191406 199.304688 828.628906 202.113281 Z M 927.113281 179.230469 C 925.800781 174.492188 923.785156 170.332031 921.058594 166.765625 C 918.335938 163.199219 914.921875 160.335938 910.796875 158.179688 C 906.664062 156.015625 901.734375 154.9375 896.015625 154.9375 C 891.519531 154.9375 887.386719 155.828125 883.640625 157.609375 C 879.886719 159.394531 876.789062 162.261719 874.347656 166.203125 L 874.078125 166.203125 L 874.078125 156.902344 L 855.078125 156.902344 L 855.078125 255.210938 L 875.058594 255.210938 L 875.058594 220.707031 L 875.339844 220.707031 C 877.78125 224.277344 880.902344 226.972656 884.699219 228.796875 C 888.492188 230.625 892.652344 231.546875 897.152344 231.546875 C 902.5 231.546875 907.160156 230.503906 911.152344 228.445312 C 915.136719 226.378906 918.46875 223.605469 921.140625 220.132812 C 923.820312 216.65625 925.804688 212.671875 927.117188 208.164062 C 928.4375 203.652344 929.09375 198.960938 929.09375 194.078125 C 929.09375 188.914062 928.4375 183.964844 927.117188 179.21875 Z M 908.253906 202.113281 C 907.695312 204.9375 906.734375 207.394531 905.371094 209.507812 C 904.003906 211.621094 902.226562 213.34375 900.023438 214.648438 C 897.820312 215.964844 895.078125 216.628906 891.792969 216.628906 C 888.503906 216.628906 885.878906 215.96875 883.628906 214.648438 C 881.371094 213.34375 879.570312 211.621094 878.203125 209.507812 C 876.847656 207.394531 875.863281 204.9375 875.25 202.113281 C 874.640625 199.296875 874.335938 196.433594 874.335938 193.535156 C 874.335938 190.632812 874.621094 187.609375 875.183594 184.800781 C 875.746094 181.984375 876.710938 179.496094 878.070312 177.328125 C 879.425781 175.171875 881.210938 173.414062 883.421875 172.054688 C 885.617188 170.691406 888.367188 170 891.652344 170 C 894.9375 170 897.535156 170.691406 899.738281 172.054688 C 901.949219 173.410156 903.75 175.191406 905.160156 177.398438 C 906.570312 179.609375 907.582031 182.125 908.1875 184.933594 C 908.804688 187.75 909.101562 190.621094 909.101562 193.535156 C 909.101562 196.445312 908.816406 199.304688 908.253906 202.113281 Z M 908.253906 202.113281 " fill-opacity="1" fill-rule="nonzero"/></g><g fill="#ffffff" fill-opacity="1"><g transform="translate(256.617476, 90.163168)"><g><path d="M 13.8125 -38.71875 C 16.070312 -38.71875 18.347656 -38.289062 20.640625 -37.4375 C 22.941406 -36.582031 24.988281 -35.265625 26.78125 -33.484375 C 28.582031 -31.703125 29.941406 -29.585938 30.859375 -27.140625 C 31.785156 -24.691406 32.25 -22.082031 32.25 -19.3125 C 32.25 -15.582031 31.414062 -12.234375 29.75 -9.265625 C 28.09375 -6.304688 25.84375 -4.019531 23 -2.40625 C 20.164062 -0.800781 17.085938 0 13.765625 0 L 2.765625 0 L 2.765625 -38.71875 Z M 10.328125 -6.578125 L 11.40625 -6.578125 C 15.78125 -6.578125 19.046875 -7.644531 21.203125 -9.78125 C 23.367188 -11.925781 24.453125 -15.117188 24.453125 -19.359375 C 24.453125 -23.535156 23.390625 -26.710938 21.265625 -28.890625 C 19.140625 -31.066406 15.851562 -32.15625 11.40625 -32.15625 L 10.328125 -32.15625 Z M 10.328125 -6.578125 "/></g></g></g><g fill="#ffffff" fill-opacity="1"><g transform="translate(289.792221, 90.163168)"><g><path d="M 2.265625 -35.796875 C 2.265625 -36.929688 2.671875 -37.925781 3.484375 -38.78125 C 4.304688 -39.632812 5.316406 -40.0625 6.515625 -40.0625 C 7.710938 -40.0625 8.722656 -39.632812 9.546875 -38.78125 C 10.367188 -37.925781 10.78125 -36.929688 10.78125 -35.796875 C 10.78125 -34.597656 10.367188 -33.585938 9.546875 -32.765625 C 8.722656 -31.941406 7.710938 -31.53125 6.515625 -31.53125 C 5.316406 -31.53125 4.304688 -31.941406 3.484375 -32.765625 C 2.671875 -33.585938 2.265625 -34.597656 2.265625 -35.796875 Z M 10.125 -25.21875 L 10.125 0 L 2.921875 0 L 2.921875 -25.21875 Z M 10.125 -25.21875 "/></g></g></g><g fill="#ffffff" fill-opacity="1"><g transform="translate(302.784802, 90.163168)"><g><path d="M 15.515625 -19.265625 C 14.992188 -19.742188 14.40625 -20.148438 13.75 -20.484375 C 13.101562 -20.828125 12.421875 -21 11.703125 -21 C 11.128906 -21 10.59375 -20.789062 10.09375 -20.375 C 9.59375 -19.96875 9.34375 -19.457031 9.34375 -18.84375 C 9.34375 -18.195312 9.625 -17.6875 10.1875 -17.3125 C 10.757812 -16.9375 11.644531 -16.507812 12.84375 -16.03125 L 14.53125 -15.359375 C 16.101562 -14.742188 17.359375 -13.859375 18.296875 -12.703125 C 19.242188 -11.554688 19.71875 -10.023438 19.71875 -8.109375 C 19.71875 -5.515625 18.800781 -3.375 16.96875 -1.6875 C 15.132812 -0.0078125 12.78125 0.828125 9.90625 0.828125 C 8.164062 0.828125 6.523438 0.457031 4.984375 -0.28125 C 3.441406 -1.019531 2.125 -2.054688 1.03125 -3.390625 L 4.3125 -7.65625 C 5.03125 -6.863281 5.832031 -6.175781 6.71875 -5.59375 C 7.613281 -5.007812 8.59375 -4.71875 9.65625 -4.71875 C 10.445312 -4.71875 11.125 -4.96875 11.6875 -5.46875 C 12.25 -5.96875 12.53125 -6.628906 12.53125 -7.453125 C 12.53125 -8.234375 12.226562 -8.847656 11.625 -9.296875 C 11.03125 -9.742188 10.132812 -10.207031 8.9375 -10.6875 C 6.75 -11.507812 5.285156 -12.253906 4.546875 -12.921875 C 3.804688 -13.585938 3.273438 -14.320312 2.953125 -15.125 C 2.628906 -15.925781 2.46875 -16.84375 2.46875 -17.875 C 2.46875 -20.238281 3.226562 -22.191406 4.75 -23.734375 C 6.269531 -25.273438 8.179688 -26.046875 10.484375 -26.046875 C 11.953125 -26.003906 13.421875 -25.769531 14.890625 -25.34375 C 16.367188 -24.914062 17.601562 -24.273438 18.59375 -23.421875 Z M 15.515625 -19.265625 "/></g></g></g><g fill="#ffffff" fill-opacity="1"><g transform="translate(323.839975, 90.163168)"><g><path d="M 19.71875 -17.515625 C 18.96875 -18.296875 18.171875 -18.898438 17.328125 -19.328125 C 16.492188 -19.765625 15.53125 -19.984375 14.4375 -19.984375 C 12.613281 -19.984375 11.09375 -19.253906 9.875 -17.796875 C 8.664062 -16.335938 8.0625 -14.566406 8.0625 -12.484375 C 8.0625 -10.359375 8.6875 -8.617188 9.9375 -7.265625 C 11.1875 -5.910156 12.769531 -5.234375 14.6875 -5.234375 C 15.675781 -5.234375 16.597656 -5.457031 17.453125 -5.90625 C 18.316406 -6.351562 19.070312 -6.9375 19.71875 -7.65625 L 19.71875 -0.71875 C 18.695312 -0.132812 17.679688 0.265625 16.671875 0.484375 C 15.660156 0.710938 14.601562 0.828125 13.5 0.828125 C 9.90625 0.828125 6.882812 -0.460938 4.4375 -3.046875 C 1.988281 -5.640625 0.765625 -8.800781 0.765625 -12.53125 C 0.765625 -14.957031 1.328125 -17.210938 2.453125 -19.296875 C 3.585938 -21.390625 5.164062 -23.035156 7.1875 -24.234375 C 9.207031 -25.441406 11.429688 -26.046875 13.859375 -26.046875 C 14.828125 -26.046875 15.8125 -25.914062 16.8125 -25.65625 C 17.820312 -25.394531 18.789062 -24.992188 19.71875 -24.453125 Z M 19.71875 -17.515625 "/></g></g></g><g fill="#ffffff" fill-opacity="1"><g transform="translate(345.460045, 90.163168)"><g><path d="M 9.609375 -25.21875 L 9.609375 -11.34375 C 9.609375 -7.269531 10.976562 -5.234375 13.71875 -5.234375 C 16.457031 -5.234375 17.828125 -7.269531 17.828125 -11.34375 L 17.828125 -25.21875 L 25.015625 -25.21875 L 25.015625 -10.171875 C 25.015625 -6.710938 24.085938 -4.015625 22.234375 -2.078125 C 20.390625 -0.140625 17.550781 0.828125 13.71875 0.828125 C 9.914062 0.828125 7.078125 -0.144531 5.203125 -2.09375 C 3.335938 -4.050781 2.40625 -6.742188 2.40625 -10.171875 L 2.40625 -25.21875 Z M 9.609375 -25.21875 "/></g></g></g><g fill="#ffffff" fill-opacity="1"><g transform="translate(372.934486, 90.163168)"><g><path d="M 10.625 -33.75 L 10.625 -25.21875 L 15.046875 -25.21875 L 15.046875 -19.15625 L 10.625 -19.15625 L 10.625 0 L 3.4375 0 L 3.4375 -19.15625 L 0.96875 -19.15625 L 0.96875 -25.21875 L 3.4375 -25.21875 L 3.4375 -33.75 Z M 10.625 -33.75 "/></g></g></g><g fill="#ffffff" fill-opacity="1"><g transform="translate(387.005507, 90.163168)"><g><path d="M 8.375 -11.453125 C 8.375 -9.359375 8.816406 -7.703125 9.703125 -6.484375 C 10.597656 -5.273438 11.816406 -4.671875 13.359375 -4.671875 C 14.554688 -4.671875 15.539062 -4.992188 16.3125 -5.640625 C 17.082031 -6.296875 17.707031 -7.117188 18.1875 -8.109375 L 24.8125 -7.03125 C 23.914062 -4.46875 22.445312 -2.515625 20.40625 -1.171875 C 18.375 0.160156 16.023438 0.828125 13.359375 0.828125 C 9.617188 0.828125 6.582031 -0.382812 4.25 -2.8125 C 1.925781 -5.25 0.765625 -8.4375 0.765625 -12.375 C 0.765625 -16.519531 1.859375 -19.832031 4.046875 -22.3125 C 6.242188 -24.800781 9.226562 -26.046875 13 -26.046875 C 16.757812 -26.046875 19.691406 -24.828125 21.796875 -22.390625 C 23.898438 -19.960938 24.953125 -16.519531 24.953125 -12.0625 L 24.953125 -11.453125 Z M 18.1875 -15.921875 C 17.945312 -17.492188 17.378906 -18.734375 16.484375 -19.640625 C 15.597656 -20.546875 14.554688 -21 13.359375 -21 C 12.222656 -21 11.207031 -20.585938 10.3125 -19.765625 C 9.425781 -18.953125 8.847656 -17.671875 8.578125 -15.921875 Z M 18.1875 -15.921875 "/></g></g></g><g fill="#ffffff" fill-opacity="1"><g transform="translate(412.733908, 90.163168)"><g><path d="M 24.703125 -25.21875 L 11.921875 -6.0625 L 23.875 -6.0625 L 23.875 0 L -0.046875 0 L 12.84375 -19.15625 L 1.953125 -19.15625 L 1.953125 -25.21875 Z M 24.703125 -25.21875 "/></g></g></g><g fill="#ffffff" fill-opacity="1"><g transform="translate(437.435232, 90.163168)"><g/></g></g><g fill="#ffffff" fill-opacity="1"><g transform="translate(452.276569, 90.163168)"><g><path d="M 19.3125 -25.21875 L 26.40625 -25.21875 L 26.40625 0 L 19.3125 0 L 19.3125 -2.3125 L 19.203125 -2.3125 C 18.453125 -1.320312 17.453125 -0.550781 16.203125 0 C 14.953125 0.550781 13.675781 0.828125 12.375 0.828125 C 9.050781 0.828125 6.285156 -0.476562 4.078125 -3.09375 C 1.867188 -5.71875 0.765625 -8.929688 0.765625 -12.734375 C 0.765625 -15.097656 1.242188 -17.289062 2.203125 -19.3125 C 3.160156 -21.332031 4.519531 -22.957031 6.28125 -24.1875 C 8.050781 -25.425781 10.050781 -26.046875 12.28125 -26.046875 C 13.570312 -26.046875 14.84375 -25.769531 16.09375 -25.21875 C 17.34375 -24.664062 18.414062 -23.878906 19.3125 -22.859375 Z M 13.96875 -19.671875 C 12.363281 -19.671875 10.976562 -18.976562 9.8125 -17.59375 C 8.644531 -16.207031 8.0625 -14.554688 8.0625 -12.640625 C 8.0625 -10.722656 8.644531 -9.0625 9.8125 -7.65625 C 10.976562 -6.25 12.378906 -5.546875 14.015625 -5.546875 C 15.691406 -5.546875 17.113281 -6.238281 18.28125 -7.625 C 19.445312 -9.007812 20.03125 -10.679688 20.03125 -12.640625 C 20.03125 -14.585938 19.4375 -16.242188 18.25 -17.609375 C 17.070312 -18.984375 15.644531 -19.671875 13.96875 -19.671875 Z M 13.96875 -19.671875 "/></g></g></g><g fill="#ffffff" fill-opacity="1"><g transform="translate(481.29162, 90.163168)"><g><path d="M 6.984375 -25.21875 L 12.890625 -10.984375 L 18.078125 -25.21875 L 25.9375 -25.21875 L 14.328125 0.515625 L 10.625 0.515625 L -0.921875 -25.21875 Z M 6.984375 -25.21875 "/></g></g></g><g fill="#ffffff" fill-opacity="1"><g transform="translate(506.35242, 90.163168)"><g><path d="M 8.375 -11.453125 C 8.375 -9.359375 8.816406 -7.703125 9.703125 -6.484375 C 10.597656 -5.273438 11.816406 -4.671875 13.359375 -4.671875 C 14.554688 -4.671875 15.539062 -4.992188 16.3125 -5.640625 C 17.082031 -6.296875 17.707031 -7.117188 18.1875 -8.109375 L 24.8125 -7.03125 C 23.914062 -4.46875 22.445312 -2.515625 20.40625 -1.171875 C 18.375 0.160156 16.023438 0.828125 13.359375 0.828125 C 9.617188 0.828125 6.582031 -0.382812 4.25 -2.8125 C 1.925781 -5.25 0.765625 -8.4375 0.765625 -12.375 C 0.765625 -16.519531 1.859375 -19.832031 4.046875 -22.3125 C 6.242188 -24.800781 9.226562 -26.046875 13 -26.046875 C 16.757812 -26.046875 19.691406 -24.828125 21.796875 -22.390625 C 23.898438 -19.960938 24.953125 -16.519531 24.953125 -12.0625 L 24.953125 -11.453125 Z M 18.1875 -15.921875 C 17.945312 -17.492188 17.378906 -18.734375 16.484375 -19.640625 C 15.597656 -20.546875 14.554688 -21 13.359375 -21 C 12.222656 -21 11.207031 -20.585938 10.3125 -19.765625 C 9.425781 -18.953125 8.847656 -17.671875 8.578125 -15.921875 Z M 18.1875 -15.921875 "/></g></g></g><g fill="#ffffff" fill-opacity="1"><g transform="translate(532.08082, 90.163168)"><g><path d="M 19.71875 -17.515625 C 18.96875 -18.296875 18.171875 -18.898438 17.328125 -19.328125 C 16.492188 -19.765625 15.53125 -19.984375 14.4375 -19.984375 C 12.613281 -19.984375 11.09375 -19.253906 9.875 -17.796875 C 8.664062 -16.335938 8.0625 -14.566406 8.0625 -12.484375 C 8.0625 -10.359375 8.6875 -8.617188 9.9375 -7.265625 C 11.1875 -5.910156 12.769531 -5.234375 14.6875 -5.234375 C 15.675781 -5.234375 16.597656 -5.457031 17.453125 -5.90625 C 18.316406 -6.351562 19.070312 -6.9375 19.71875 -7.65625 L 19.71875 -0.71875 C 18.695312 -0.132812 17.679688 0.265625 16.671875 0.484375 C 15.660156 0.710938 14.601562 0.828125 13.5 0.828125 C 9.90625 0.828125 6.882812 -0.460938 4.4375 -3.046875 C 1.988281 -5.640625 0.765625 -8.800781 0.765625 -12.53125 C 0.765625 -14.957031 1.328125 -17.210938 2.453125 -19.296875 C 3.585938 -21.390625 5.164062 -23.035156 7.1875 -24.234375 C 9.207031 -25.441406 11.429688 -26.046875 13.859375 -26.046875 C 14.828125 -26.046875 15.8125 -25.914062 16.8125 -25.65625 C 17.820312 -25.394531 18.789062 -24.992188 19.71875 -24.453125 Z M 19.71875 -17.515625 "/></g></g></g><g fill="#ffffff" fill-opacity="1"><g transform="translate(553.70089, 90.163168)"><g/></g></g><g fill="#ffffff" fill-opacity="1"><g transform="translate(568.542227, 90.163168)"><g><path d="M 25.171875 0 L 17.96875 0 L 17.96875 -14.59375 C 17.96875 -16.4375 17.691406 -17.84375 17.140625 -18.8125 C 16.597656 -19.789062 15.578125 -20.28125 14.078125 -20.28125 C 12.703125 -20.28125 11.640625 -19.738281 10.890625 -18.65625 C 10.140625 -17.582031 9.765625 -15.710938 9.765625 -13.046875 L 9.765625 0 L 2.5625 0 L 2.5625 -25.21875 L 9.765625 -25.21875 L 9.765625 -22.90625 L 9.859375 -22.90625 C 10.609375 -24.03125 11.566406 -24.832031 12.734375 -25.3125 C 13.898438 -25.800781 15.132812 -26.046875 16.4375 -26.046875 C 19.34375 -26.046875 21.523438 -25.160156 22.984375 -23.390625 C 24.441406 -21.628906 25.171875 -19.035156 25.171875 -15.609375 Z M 25.171875 0 "/></g></g></g><g fill="#ffffff" fill-opacity="1"><g transform="translate(596.273454, 90.163168)"><g><path d="M 0.828125 -12.578125 C 0.828125 -16.554688 2.070312 -19.796875 4.5625 -22.296875 C 7.0625 -24.796875 10.234375 -26.046875 14.078125 -26.046875 C 17.972656 -26.046875 21.15625 -24.773438 23.625 -22.234375 C 26.09375 -19.703125 27.328125 -16.484375 27.328125 -12.578125 C 27.328125 -8.640625 26.082031 -5.421875 23.59375 -2.921875 C 21.113281 -0.421875 17.941406 0.828125 14.078125 0.828125 C 10.203125 0.828125 7.023438 -0.429688 4.546875 -2.953125 C 2.066406 -5.472656 0.828125 -8.679688 0.828125 -12.578125 Z M 14.015625 -19.671875 C 12.410156 -19.671875 11.023438 -18.976562 9.859375 -17.59375 C 8.691406 -16.207031 8.109375 -14.535156 8.109375 -12.578125 C 8.109375 -10.703125 8.691406 -9.0625 9.859375 -7.65625 C 11.023438 -6.25 12.429688 -5.546875 14.078125 -5.546875 C 15.785156 -5.546875 17.203125 -6.25 18.328125 -7.65625 C 19.460938 -9.0625 20.03125 -10.703125 20.03125 -12.578125 C 20.03125 -14.429688 19.472656 -16.078125 18.359375 -17.515625 C 17.242188 -18.953125 15.796875 -19.671875 14.015625 -19.671875 Z M 14.015625 -19.671875 "/></g></g></g><g fill="#ffffff" fill-opacity="1"><g transform="translate(624.415496, 90.163168)"><g><path d="M 9.609375 -25.21875 L 9.609375 -11.34375 C 9.609375 -7.269531 10.976562 -5.234375 13.71875 -5.234375 C 16.457031 -5.234375 17.828125 -7.269531 17.828125 -11.34375 L 17.828125 -25.21875 L 25.015625 -25.21875 L 25.015625 -10.171875 C 25.015625 -6.710938 24.085938 -4.015625 22.234375 -2.078125 C 20.390625 -0.140625 17.550781 0.828125 13.71875 0.828125 C 9.914062 0.828125 7.078125 -0.144531 5.203125 -2.09375 C 3.335938 -4.050781 2.40625 -6.742188 2.40625 -10.171875 L 2.40625 -25.21875 Z M 9.609375 -25.21875 "/></g></g></g><g fill="#ffffff" fill-opacity="1"><g transform="translate(651.889937, 90.163168)"><g><path d="M 15.515625 -19.265625 C 14.992188 -19.742188 14.40625 -20.148438 13.75 -20.484375 C 13.101562 -20.828125 12.421875 -21 11.703125 -21 C 11.128906 -21 10.59375 -20.789062 10.09375 -20.375 C 9.59375 -19.96875 9.34375 -19.457031 9.34375 -18.84375 C 9.34375 -18.195312 9.625 -17.6875 10.1875 -17.3125 C 10.757812 -16.9375 11.644531 -16.507812 12.84375 -16.03125 L 14.53125 -15.359375 C 16.101562 -14.742188 17.359375 -13.859375 18.296875 -12.703125 C 19.242188 -11.554688 19.71875 -10.023438 19.71875 -8.109375 C 19.71875 -5.515625 18.800781 -3.375 16.96875 -1.6875 C 15.132812 -0.0078125 12.78125 0.828125 9.90625 0.828125 C 8.164062 0.828125 6.523438 0.457031 4.984375 -0.28125 C 3.441406 -1.019531 2.125 -2.054688 1.03125 -3.390625 L 4.3125 -7.65625 C 5.03125 -6.863281 5.832031 -6.175781 6.71875 -5.59375 C 7.613281 -5.007812 8.59375 -4.71875 9.65625 -4.71875 C 10.445312 -4.71875 11.125 -4.96875 11.6875 -5.46875 C 12.25 -5.96875 12.53125 -6.628906 12.53125 -7.453125 C 12.53125 -8.234375 12.226562 -8.847656 11.625 -9.296875 C 11.03125 -9.742188 10.132812 -10.207031 8.9375 -10.6875 C 6.75 -11.507812 5.285156 -12.253906 4.546875 -12.921875 C 3.804688 -13.585938 3.273438 -14.320312 2.953125 -15.125 C 2.628906 -15.925781 2.46875 -16.84375 2.46875 -17.875 C 2.46875 -20.238281 3.226562 -22.191406 4.75 -23.734375 C 6.269531 -25.273438 8.179688 -26.046875 10.484375 -26.046875 C 11.953125 -26.003906 13.421875 -25.769531 14.890625 -25.34375 C 16.367188 -24.914062 17.601562 -24.273438 18.59375 -23.421875 Z M 15.515625 -19.265625 "/></g></g></g><g fill="#ffffff" fill-opacity="1"><g transform="translate(672.945136, 90.163168)"><g/></g></g><g fill="#ffffff" fill-opacity="1"><g transform="translate(687.786473, 90.163168)"><g><path d="M 15.515625 -19.265625 C 14.992188 -19.742188 14.40625 -20.148438 13.75 -20.484375 C 13.101562 -20.828125 12.421875 -21 11.703125 -21 C 11.128906 -21 10.59375 -20.789062 10.09375 -20.375 C 9.59375 -19.96875 9.34375 -19.457031 9.34375 -18.84375 C 9.34375 -18.195312 9.625 -17.6875 10.1875 -17.3125 C 10.757812 -16.9375 11.644531 -16.507812 12.84375 -16.03125 L 14.53125 -15.359375 C 16.101562 -14.742188 17.359375 -13.859375 18.296875 -12.703125 C 19.242188 -11.554688 19.71875 -10.023438 19.71875 -8.109375 C 19.71875 -5.515625 18.800781 -3.375 16.96875 -1.6875 C 15.132812 -0.0078125 12.78125 0.828125 9.90625 0.828125 C 8.164062 0.828125 6.523438 0.457031 4.984375 -0.28125 C 3.441406 -1.019531 2.125 -2.054688 1.03125 -3.390625 L 4.3125 -7.65625 C 5.03125 -6.863281 5.832031 -6.175781 6.71875 -5.59375 C 7.613281 -5.007812 8.59375 -4.71875 9.65625 -4.71875 C 10.445312 -4.71875 11.125 -4.96875 11.6875 -5.46875 C 12.25 -5.96875 12.53125 -6.628906 12.53125 -7.453125 C 12.53125 -8.234375 12.226562 -8.847656 11.625 -9.296875 C 11.03125 -9.742188 10.132812 -10.207031 8.9375 -10.6875 C 6.75 -11.507812 5.285156 -12.253906 4.546875 -12.921875 C 3.804688 -13.585938 3.273438 -14.320312 2.953125 -15.125 C 2.628906 -15.925781 2.46875 -16.84375 2.46875 -17.875 C 2.46875 -20.238281 3.226562 -22.191406 4.75 -23.734375 C 6.269531 -25.273438 8.179688 -26.046875 10.484375 -26.046875 C 11.953125 -26.003906 13.421875 -25.769531 14.890625 -25.34375 C 16.367188 -24.914062 17.601562 -24.273438 18.59375 -23.421875 Z M 15.515625 -19.265625 "/></g></g></g><g fill="#ffffff" fill-opacity="1"><g transform="translate(708.841671, 90.163168)"><g><path d="M 9.609375 -25.21875 L 9.609375 -11.34375 C 9.609375 -7.269531 10.976562 -5.234375 13.71875 -5.234375 C 16.457031 -5.234375 17.828125 -7.269531 17.828125 -11.34375 L 17.828125 -25.21875 L 25.015625 -25.21875 L 25.015625 -10.171875 C 25.015625 -6.710938 24.085938 -4.015625 22.234375 -2.078125 C 20.390625 -0.140625 17.550781 0.828125 13.71875 0.828125 C 9.914062 0.828125 7.078125 -0.144531 5.203125 -2.09375 C 3.335938 -4.050781 2.40625 -6.742188 2.40625 -10.171875 L 2.40625 -25.21875 Z M 9.609375 -25.21875 "/></g></g></g><g fill="#ffffff" fill-opacity="1"><g transform="translate(736.316088, 90.163168)"><g><path d="M 18.234375 -18.75 C 17.335938 -19.363281 16.34375 -19.671875 15.25 -19.671875 C 13.40625 -19.671875 12.03125 -19.046875 11.125 -17.796875 C 10.21875 -16.546875 9.765625 -14.484375 9.765625 -11.609375 L 9.765625 0 L 2.5625 0 L 2.5625 -25.21875 L 9.765625 -25.21875 L 9.765625 -22.59375 L 9.859375 -22.59375 C 10.578125 -23.6875 11.46875 -24.535156 12.53125 -25.140625 C 13.59375 -25.742188 14.789062 -26.046875 16.125 -26.046875 C 17.113281 -26.003906 18.109375 -25.796875 19.109375 -25.421875 Z M 18.234375 -18.75 "/></g></g></g><g fill="#ffffff" fill-opacity="1"><g transform="translate(755.167438, 90.163168)"><g/></g></g></svg>